<mxfile host="app.diagrams.net" modified="2022-01-11T12:42:49.770Z" agent="5.0 (Windows NT 10.0; Win64; x64) AppleWebKit/537.36 (KHTML, like Gecko) Chrome/97.0.4692.71 Safari/537.36" etag="6Y2UkXmj9UtAOMUTpQb9" version="16.2.4" type="github">
  <diagram id="W6ZGF2un0BoJKMEeY_mk" name="第 1 页">
    <mxGraphModel dx="2036" dy="642" grid="1" gridSize="10" guides="1" tooltips="1" connect="1" arrows="1" fold="1" page="1" pageScale="1" pageWidth="827" pageHeight="1169" math="0" shadow="0">
      <root>
        <mxCell id="0" />
        <mxCell id="1" parent="0" />
        <mxCell id="e7JEkWqxTlUs2DyEpslv-4" value="" style="rounded=0;whiteSpace=wrap;html=1;" vertex="1" parent="1">
          <mxGeometry x="90" y="360" width="660" height="60" as="geometry" />
        </mxCell>
        <mxCell id="epdLZV1Ef7CeLpmjTNZs-1" value="Web浏览器&lt;br&gt;IE、Chrome、Firefox，Safari" style="rounded=0;whiteSpace=wrap;html=1;" parent="1" vertex="1">
          <mxGeometry x="90" y="90" width="660" height="60" as="geometry" />
        </mxCell>
        <mxCell id="epdLZV1Ef7CeLpmjTNZs-2" value="管理员" style="rounded=0;whiteSpace=wrap;html=1;" parent="1" vertex="1">
          <mxGeometry x="90" y="40" width="120" height="40" as="geometry" />
        </mxCell>
        <mxCell id="epdLZV1Ef7CeLpmjTNZs-4" value="APP审核员" style="rounded=0;whiteSpace=wrap;html=1;" parent="1" vertex="1">
          <mxGeometry x="220" y="40" width="120" height="40" as="geometry" />
        </mxCell>
        <mxCell id="epdLZV1Ef7CeLpmjTNZs-5" value="其他审核员" style="rounded=0;whiteSpace=wrap;html=1;" parent="1" vertex="1">
          <mxGeometry x="354" y="40" width="120" height="40" as="geometry" />
        </mxCell>
        <mxCell id="epdLZV1Ef7CeLpmjTNZs-6" value="业务方" style="rounded=0;whiteSpace=wrap;html=1;" parent="1" vertex="1">
          <mxGeometry x="490" y="40" width="120" height="40" as="geometry" />
        </mxCell>
        <mxCell id="epdLZV1Ef7CeLpmjTNZs-7" value="业务方" style="rounded=0;whiteSpace=wrap;html=1;" parent="1" vertex="1">
          <mxGeometry x="630" y="40" width="120" height="40" as="geometry" />
        </mxCell>
        <mxCell id="epdLZV1Ef7CeLpmjTNZs-8" value="应用层" style="rounded=0;whiteSpace=wrap;html=1;" parent="1" vertex="1">
          <mxGeometry x="-30" y="40" width="90" height="110" as="geometry" />
        </mxCell>
        <mxCell id="epdLZV1Ef7CeLpmjTNZs-9" value="web网关" style="rounded=0;whiteSpace=wrap;html=1;" parent="1" vertex="1">
          <mxGeometry x="90" y="180" width="480" height="30" as="geometry" />
        </mxCell>
        <mxCell id="epdLZV1Ef7CeLpmjTNZs-10" value="api网关" style="rounded=0;whiteSpace=wrap;html=1;" parent="1" vertex="1">
          <mxGeometry x="580" y="180" width="170" height="30" as="geometry" />
        </mxCell>
        <mxCell id="epdLZV1Ef7CeLpmjTNZs-11" value="统一认证及鉴权服务" style="rounded=0;whiteSpace=wrap;html=1;" parent="1" vertex="1">
          <mxGeometry x="90" y="210" width="660" height="30" as="geometry" />
        </mxCell>
        <mxCell id="epdLZV1Ef7CeLpmjTNZs-12" value="拒绝理由&lt;br&gt;微服务" style="rounded=0;whiteSpace=wrap;html=1;" parent="1" vertex="1">
          <mxGeometry x="90" y="280" width="80" height="50" as="geometry" />
        </mxCell>
        <mxCell id="epdLZV1Ef7CeLpmjTNZs-13" value="黑白名单&lt;br&gt;微服务" style="rounded=0;whiteSpace=wrap;html=1;" parent="1" vertex="1">
          <mxGeometry x="190" y="280" width="80" height="50" as="geometry" />
        </mxCell>
        <mxCell id="epdLZV1Ef7CeLpmjTNZs-14" value="开发者资质审核微服务" style="rounded=0;whiteSpace=wrap;html=1;" parent="1" vertex="1">
          <mxGeometry x="290" y="280" width="80" height="50" as="geometry" />
        </mxCell>
        <mxCell id="epdLZV1Ef7CeLpmjTNZs-15" value="APP人工审核微服务" style="rounded=0;whiteSpace=wrap;html=1;" parent="1" vertex="1">
          <mxGeometry x="394" y="280" width="80" height="50" as="geometry" />
        </mxCell>
        <mxCell id="e7JEkWqxTlUs2DyEpslv-1" value="Redis" style="rounded=0;whiteSpace=wrap;html=1;" vertex="1" parent="1">
          <mxGeometry x="180" y="370" width="360" height="20" as="geometry" />
        </mxCell>
        <mxCell id="e7JEkWqxTlUs2DyEpslv-2" value="MySQL&amp;nbsp;" style="rounded=0;whiteSpace=wrap;html=1;" vertex="1" parent="1">
          <mxGeometry x="180" y="390" width="360" height="20" as="geometry" />
        </mxCell>
        <mxCell id="e7JEkWqxTlUs2DyEpslv-3" value="elastic search" style="rounded=0;whiteSpace=wrap;html=1;" vertex="1" parent="1">
          <mxGeometry x="550" y="370" width="120" height="40" as="geometry" />
        </mxCell>
        <mxCell id="e7JEkWqxTlUs2DyEpslv-5" value="数据存储" style="text;html=1;align=center;verticalAlign=middle;resizable=0;points=[];autosize=1;strokeColor=none;fillColor=none;" vertex="1" parent="1">
          <mxGeometry x="690" y="380" width="60" height="20" as="geometry" />
        </mxCell>
      </root>
    </mxGraphModel>
  </diagram>
</mxfile>
